<svg width="1440" height="291" viewBox="0 0 1440 291" fill="none" xmlns="http://www.w3.org/2000/svg">
<path fill-rule="evenodd" clip-rule="evenodd" d="M-19.8711 5.06445C-19.8711 7.86145 -22.1387 10.1289 -24.9355 10.1289C-27.7324 10.1289 -30 7.86145 -30 5.06445C-30 2.26746 -27.7324 0 -24.9355 0C-22.1387 0 -19.8711 2.26746 -19.8711 5.06445ZM36.2275 5.06445C36.2275 7.86145 33.96 10.1289 31.1631 10.1289C28.3652 10.1289 26.0986 7.86145 26.0986 5.06445C26.0986 2.26746 28.3652 0 31.1631 0C33.96 0 36.2275 2.26746 36.2275 5.06445ZM31.1631 66.2274C33.96 66.2274 36.2275 63.96 36.2275 61.163C36.2275 58.3658 33.96 56.0985 31.1631 56.0985C28.3652 56.0985 26.0986 58.3658 26.0986 61.163C26.0986 63.96 28.3652 66.2274 31.1631 66.2274ZM-19.8711 61.163C-19.8711 63.96 -22.1387 66.2274 -24.9355 66.2274C-27.7324 66.2274 -30 63.96 -30 61.163C-30 58.3658 -27.7324 56.0985 -24.9355 56.0985C-22.1387 56.0985 -19.8711 58.3658 -19.8711 61.163ZM87.2617 10.1289C90.0586 10.1289 92.3262 7.86145 92.3262 5.06445C92.3262 2.26746 90.0586 0 87.2617 0C84.4648 0 82.1973 2.26746 82.1973 5.06445C82.1973 7.86145 84.4648 10.1289 87.2617 10.1289ZM148.425 5.06445C148.425 7.86145 146.157 10.1289 143.36 10.1289C140.563 10.1289 138.296 7.86145 138.296 5.06445C138.296 2.26746 140.563 0 143.36 0C146.157 0 148.425 2.26746 148.425 5.06445ZM143.36 66.2274C146.157 66.2274 148.425 63.96 148.425 61.163C148.425 58.3658 146.157 56.0985 143.36 56.0985C140.563 56.0985 138.296 58.3658 138.296 61.163C138.296 63.96 140.563 66.2274 143.36 66.2274ZM92.3262 61.163C92.3262 63.96 90.0586 66.2274 87.2617 66.2274C84.4648 66.2274 82.1973 63.96 82.1973 61.163C82.1973 58.3658 84.4648 56.0985 87.2617 56.0985C90.0586 56.0985 92.3262 58.3658 92.3262 61.163ZM-24.9355 122.326C-22.1387 122.326 -19.8711 120.058 -19.8711 117.261C-19.8711 114.464 -22.1387 112.197 -24.9355 112.197C-27.7324 112.197 -30 114.464 -30 117.261C-30 120.058 -27.7324 122.326 -24.9355 122.326ZM36.2275 117.261C36.2275 120.058 33.96 122.326 31.1631 122.326C28.3652 122.326 26.0986 120.058 26.0986 117.261C26.0986 114.464 28.3652 112.197 31.1631 112.197C33.96 112.197 36.2275 114.464 36.2275 117.261ZM31.1631 178.424C33.96 178.424 36.2275 176.157 36.2275 173.36C36.2275 170.563 33.96 168.295 31.1631 168.295C28.3652 168.295 26.0986 170.563 26.0986 173.36C26.0986 176.157 28.3652 178.424 31.1631 178.424ZM-19.8711 173.36C-19.8711 176.157 -22.1387 178.424 -24.9355 178.424C-27.7324 178.424 -30 176.157 -30 173.36C-30 170.563 -27.7324 168.295 -24.9355 168.295C-22.1387 168.295 -19.8711 170.563 -19.8711 173.36ZM87.2617 122.326C90.0586 122.326 92.3262 120.058 92.3262 117.261C92.3262 114.464 90.0586 112.197 87.2617 112.197C84.4648 112.197 82.1973 114.464 82.1973 117.261C82.1973 120.058 84.4648 122.326 87.2617 122.326ZM148.425 117.261C148.425 120.058 146.157 122.326 143.36 122.326C140.563 122.326 138.296 120.058 138.296 117.261C138.296 114.464 140.563 112.197 143.36 112.197C146.157 112.197 148.425 114.464 148.425 117.261ZM143.36 178.424C146.157 178.424 148.425 176.157 148.425 173.36C148.425 170.563 146.157 168.295 143.36 168.295C140.563 168.295 138.296 170.563 138.296 173.36C138.296 176.157 140.563 178.424 143.36 178.424ZM92.3262 173.36C92.3262 176.157 90.0586 178.424 87.2617 178.424C84.4648 178.424 82.1973 176.157 82.1973 173.36C82.1973 170.563 84.4648 168.295 87.2617 168.295C90.0586 168.295 92.3262 170.563 92.3262 173.36ZM199.458 10.1289C202.255 10.1289 204.522 7.86145 204.522 5.06445C204.522 2.26746 202.255 0 199.458 0C196.661 0 194.394 2.26746 194.394 5.06445C194.394 7.86145 196.661 10.1289 199.458 10.1289ZM260.622 5.06445C260.622 7.86145 258.354 10.1289 255.557 10.1289C252.76 10.1289 250.493 7.86145 250.493 5.06445C250.493 2.26746 252.76 0 255.557 0C258.354 0 260.622 2.26746 260.622 5.06445ZM255.557 66.2274C258.354 66.2274 260.622 63.96 260.622 61.163C260.622 58.3658 258.354 56.0985 255.557 56.0985C252.76 56.0985 250.493 58.3658 250.493 61.163C250.493 63.96 252.76 66.2274 255.557 66.2274ZM204.522 61.163C204.522 63.96 202.255 66.2274 199.458 66.2274C196.661 66.2274 194.394 63.96 194.394 61.163C194.394 58.3658 196.661 56.0985 199.458 56.0985C202.255 56.0985 204.522 58.3658 204.522 61.163ZM311.655 10.1289C314.452 10.1289 316.72 7.86145 316.72 5.06445C316.72 2.26746 314.452 0 311.655 0C308.858 0 306.591 2.26746 306.591 5.06445C306.591 7.86145 308.858 10.1289 311.655 10.1289ZM372.818 5.06445C372.818 7.86145 370.551 10.1289 367.754 10.1289C364.957 10.1289 362.689 7.86145 362.689 5.06445C362.689 2.26746 364.957 0 367.754 0C370.551 0 372.818 2.26746 372.818 5.06445ZM367.754 66.2274C370.551 66.2274 372.818 63.96 372.818 61.163C372.818 58.3658 370.551 56.0985 367.754 56.0985C364.957 56.0985 362.689 58.3658 362.689 61.163C362.689 63.96 364.957 66.2274 367.754 66.2274ZM316.72 61.163C316.72 63.96 314.452 66.2274 311.655 66.2274C308.858 66.2274 306.591 63.96 306.591 61.163C306.591 58.3658 308.858 56.0985 311.655 56.0985C314.452 56.0985 316.72 58.3658 316.72 61.163ZM199.458 122.326C202.255 122.326 204.522 120.058 204.522 117.261C204.522 114.464 202.255 112.197 199.458 112.197C196.661 112.197 194.394 114.464 194.394 117.261C194.394 120.058 196.661 122.326 199.458 122.326ZM260.622 117.261C260.622 120.058 258.354 122.326 255.557 122.326C252.76 122.326 250.493 120.058 250.493 117.261C250.493 114.464 252.76 112.197 255.557 112.197C258.354 112.197 260.622 114.464 260.622 117.261ZM255.557 178.424C258.354 178.424 260.622 176.157 260.622 173.36C260.622 170.563 258.354 168.295 255.557 168.295C252.76 168.295 250.493 170.563 250.493 173.36C250.493 176.157 252.76 178.424 255.557 178.424ZM204.522 173.36C204.522 176.157 202.255 178.424 199.458 178.424C196.661 178.424 194.394 176.157 194.394 173.36C194.394 170.563 196.661 168.295 199.458 168.295C202.255 168.295 204.522 170.563 204.522 173.36ZM311.655 122.326C314.452 122.326 316.72 120.058 316.72 117.261C316.72 114.464 314.452 112.197 311.655 112.197C308.858 112.197 306.591 114.464 306.591 117.261C306.591 120.058 308.858 122.326 311.655 122.326ZM372.818 117.261C372.818 120.058 370.551 122.326 367.754 122.326C364.957 122.326 362.689 120.058 362.689 117.261C362.689 114.464 364.957 112.197 367.754 112.197C370.551 112.197 372.818 114.464 372.818 117.261ZM367.754 178.424C370.551 178.424 372.818 176.157 372.818 173.36C372.818 170.563 370.551 168.295 367.754 168.295C364.957 168.295 362.689 170.563 362.689 173.36C362.689 176.157 364.957 178.424 367.754 178.424ZM316.72 173.36C316.72 176.157 314.452 178.424 311.655 178.424C308.858 178.424 306.591 176.157 306.591 173.36C306.591 170.563 308.858 168.295 311.655 168.295C314.452 168.295 316.72 170.563 316.72 173.36ZM-24.9355 234.523C-22.1387 234.523 -19.8711 232.255 -19.8711 229.458C-19.8711 226.661 -22.1387 224.394 -24.9355 224.394C-27.7324 224.394 -30 226.661 -30 229.458C-30 232.255 -27.7324 234.523 -24.9355 234.523ZM36.2275 229.458C36.2275 232.255 33.96 234.523 31.1631 234.523C28.3652 234.523 26.0986 232.255 26.0986 229.458C26.0986 226.661 28.3652 224.394 31.1631 224.394C33.96 224.394 36.2275 226.661 36.2275 229.458ZM31.1631 290.621C33.96 290.621 36.2275 288.354 36.2275 285.557C36.2275 282.76 33.96 280.492 31.1631 280.492C28.3652 280.492 26.0986 282.76 26.0986 285.557C26.0986 288.354 28.3652 290.621 31.1631 290.621ZM-19.8711 285.557C-19.8711 288.354 -22.1387 290.621 -24.9355 290.621C-27.7324 290.621 -30 288.354 -30 285.557C-30 282.76 -27.7324 280.492 -24.9355 280.492C-22.1387 280.492 -19.8711 282.76 -19.8711 285.557ZM87.2617 234.523C90.0586 234.523 92.3262 232.255 92.3262 229.458C92.3262 226.661 90.0586 224.394 87.2617 224.394C84.4648 224.394 82.1973 226.661 82.1973 229.458C82.1973 232.255 84.4648 234.523 87.2617 234.523ZM148.425 229.458C148.425 232.255 146.157 234.523 143.36 234.523C140.563 234.523 138.296 232.255 138.296 229.458C138.296 226.661 140.563 224.394 143.36 224.394C146.157 224.394 148.425 226.661 148.425 229.458ZM143.36 290.621C146.157 290.621 148.425 288.354 148.425 285.557C148.425 282.76 146.157 280.492 143.36 280.492C140.563 280.492 138.296 282.76 138.296 285.557C138.296 288.354 140.563 290.621 143.36 290.621ZM92.3262 285.557C92.3262 288.354 90.0586 290.621 87.2617 290.621C84.4648 290.621 82.1973 288.354 82.1973 285.557C82.1973 282.76 84.4648 280.492 87.2617 280.492C90.0586 280.492 92.3262 282.76 92.3262 285.557ZM199.458 234.523C202.255 234.523 204.522 232.255 204.522 229.458C204.522 226.661 202.255 224.394 199.458 224.394C196.661 224.394 194.394 226.661 194.394 229.458C194.394 232.255 196.661 234.523 199.458 234.523ZM260.622 229.458C260.622 232.255 258.354 234.523 255.557 234.523C252.76 234.523 250.493 232.255 250.493 229.458C250.493 226.661 252.76 224.394 255.557 224.394C258.354 224.394 260.622 226.661 260.622 229.458ZM255.557 290.621C258.354 290.621 260.622 288.354 260.622 285.557C260.622 282.76 258.354 280.492 255.557 280.492C252.76 280.492 250.493 282.76 250.493 285.557C250.493 288.354 252.76 290.621 255.557 290.621ZM204.522 285.557C204.522 288.354 202.255 290.621 199.458 290.621C196.661 290.621 194.394 288.354 194.394 285.557C194.394 282.76 196.661 280.492 199.458 280.492C202.255 280.492 204.522 282.76 204.522 285.557ZM311.655 234.523C314.452 234.523 316.72 232.255 316.72 229.458C316.72 226.661 314.452 224.394 311.655 224.394C308.858 224.394 306.591 226.661 306.591 229.458C306.591 232.255 308.858 234.523 311.655 234.523ZM372.818 229.458C372.818 232.255 370.551 234.523 367.754 234.523C364.957 234.523 362.689 232.255 362.689 229.458C362.689 226.661 364.957 224.394 367.754 224.394C370.551 224.394 372.818 226.661 372.818 229.458ZM367.754 290.621C370.551 290.621 372.818 288.354 372.818 285.557C372.818 282.76 370.551 280.492 367.754 280.492C364.957 280.492 362.689 282.76 362.689 285.557C362.689 288.354 364.957 290.621 367.754 290.621ZM316.72 285.557C316.72 288.354 314.452 290.621 311.655 290.621C308.858 290.621 306.591 288.354 306.591 285.557C306.591 282.76 308.858 280.492 311.655 280.492C314.452 280.492 316.72 282.76 316.72 285.557ZM423.852 234.523C426.649 234.523 428.917 232.255 428.917 229.458C428.917 226.661 426.649 224.394 423.852 224.394C421.055 224.394 418.788 226.661 418.788 229.458C418.788 232.255 421.055 234.523 423.852 234.523ZM485.016 229.458C485.016 232.255 482.748 234.523 479.951 234.523C477.154 234.523 474.887 232.255 474.887 229.458C474.887 226.661 477.154 224.394 479.951 224.394C482.748 224.394 485.016 226.661 485.016 229.458ZM479.951 290.621C482.748 290.621 485.016 288.354 485.016 285.557C485.016 282.76 482.748 280.492 479.951 280.492C477.154 280.492 474.887 282.76 474.887 285.557C474.887 288.354 477.154 290.621 479.951 290.621ZM428.917 285.557C428.917 288.354 426.649 290.621 423.852 290.621C421.055 290.621 418.788 288.354 418.788 285.557C418.788 282.76 421.055 280.492 423.852 280.492C426.649 280.492 428.917 282.76 428.917 285.557ZM536.049 234.523C538.846 234.523 541.114 232.255 541.114 229.458C541.114 226.661 538.846 224.394 536.049 224.394C533.252 224.394 530.985 226.661 530.985 229.458C530.985 232.255 533.252 234.523 536.049 234.523ZM597.212 229.458C597.212 232.255 594.945 234.523 592.148 234.523C589.351 234.523 587.083 232.255 587.083 229.458C587.083 226.661 589.351 224.394 592.148 224.394C594.945 224.394 597.212 226.661 597.212 229.458ZM592.148 290.621C594.945 290.621 597.212 288.354 597.212 285.557C597.212 282.76 594.945 280.492 592.148 280.492C589.351 280.492 587.083 282.76 587.083 285.557C587.083 288.354 589.351 290.621 592.148 290.621ZM541.114 285.557C541.114 288.354 538.846 290.621 536.049 290.621C533.252 290.621 530.985 288.354 530.985 285.557C530.985 282.76 533.252 280.492 536.049 280.492C538.846 280.492 541.114 282.76 541.114 285.557ZM648.246 234.523C651.043 234.523 653.311 232.255 653.311 229.458C653.311 226.661 651.043 224.394 648.246 224.394C645.449 224.394 643.182 226.661 643.182 229.458C643.182 232.255 645.449 234.523 648.246 234.523ZM709.409 229.458C709.409 232.255 707.142 234.523 704.345 234.523C701.548 234.523 699.28 232.255 699.28 229.458C699.28 226.661 701.548 224.394 704.345 224.394C707.142 224.394 709.409 226.661 709.409 229.458ZM704.345 290.621C707.142 290.621 709.409 288.354 709.409 285.557C709.409 282.76 707.142 280.492 704.345 280.492C701.548 280.492 699.28 282.76 699.28 285.557C699.28 288.354 701.548 290.621 704.345 290.621ZM653.311 285.557C653.311 288.354 651.043 290.621 648.246 290.621C645.449 290.621 643.182 288.354 643.182 285.557C643.182 282.76 645.449 280.492 648.246 280.492C651.043 280.492 653.311 282.76 653.311 285.557ZM760.443 234.523C763.24 234.523 765.507 232.255 765.507 229.458C765.507 226.661 763.24 224.394 760.443 224.394C757.646 224.394 755.378 226.661 755.378 229.458C755.378 232.255 757.646 234.523 760.443 234.523ZM821.606 229.458C821.606 232.255 819.339 234.523 816.542 234.523C813.745 234.523 811.478 232.255 811.478 229.458C811.478 226.661 813.745 224.394 816.542 224.394C819.339 224.394 821.606 226.661 821.606 229.458ZM816.542 290.621C819.339 290.621 821.606 288.354 821.606 285.557C821.606 282.76 819.339 280.492 816.542 280.492C813.745 280.492 811.478 282.76 811.478 285.557C811.478 288.354 813.745 290.621 816.542 290.621ZM765.507 285.557C765.507 288.354 763.24 290.621 760.443 290.621C757.646 290.621 755.378 288.354 755.378 285.557C755.378 282.76 757.646 280.492 760.443 280.492C763.24 280.492 765.507 282.76 765.507 285.557ZM872.64 234.523C875.437 234.523 877.705 232.255 877.705 229.458C877.705 226.661 875.437 224.394 872.64 224.394C869.843 224.394 867.576 226.661 867.576 229.458C867.576 232.255 869.843 234.523 872.64 234.523ZM933.803 229.458C933.803 232.255 931.536 234.523 928.739 234.523C925.942 234.523 923.674 232.255 923.674 229.458C923.674 226.661 925.942 224.394 928.739 224.394C931.536 224.394 933.803 226.661 933.803 229.458ZM928.739 290.621C931.536 290.621 933.803 288.354 933.803 285.557C933.803 282.76 931.536 280.492 928.739 280.492C925.942 280.492 923.674 282.76 923.674 285.557C923.674 288.354 925.942 290.621 928.739 290.621ZM877.705 285.557C877.705 288.354 875.437 290.621 872.64 290.621C869.843 290.621 867.576 288.354 867.576 285.557C867.576 282.76 869.843 280.492 872.64 280.492C875.437 280.492 877.705 282.76 877.705 285.557ZM984.837 234.523C987.634 234.523 989.901 232.255 989.901 229.458C989.901 226.661 987.634 224.394 984.837 224.394C982.04 224.394 979.772 226.661 979.772 229.458C979.772 232.255 982.04 234.523 984.837 234.523ZM1046 229.458C1046 232.255 1043.73 234.523 1040.94 234.523C1038.14 234.523 1035.87 232.255 1035.87 229.458C1035.87 226.661 1038.14 224.394 1040.94 224.394C1043.73 224.394 1046 226.661 1046 229.458ZM1040.94 290.621C1043.73 290.621 1046 288.354 1046 285.557C1046 282.76 1043.73 280.492 1040.94 280.492C1038.14 280.492 1035.87 282.76 1035.87 285.557C1035.87 288.354 1038.14 290.621 1040.94 290.621ZM989.901 285.557C989.901 288.354 987.634 290.621 984.837 290.621C982.04 290.621 979.772 288.354 979.772 285.557C979.772 282.76 982.04 280.492 984.837 280.492C987.634 280.492 989.901 282.76 989.901 285.557ZM423.852 10.1289C426.649 10.1289 428.917 7.86145 428.917 5.06445C428.917 2.26746 426.649 0 423.852 0C421.055 0 418.788 2.26746 418.788 5.06445C418.788 7.86145 421.055 10.1289 423.852 10.1289ZM485.016 5.06445C485.016 7.86145 482.748 10.1289 479.951 10.1289C477.154 10.1289 474.887 7.86145 474.887 5.06445C474.887 2.26746 477.154 0 479.951 0C482.748 0 485.016 2.26746 485.016 5.06445ZM479.951 66.2274C482.748 66.2274 485.016 63.96 485.016 61.163C485.016 58.3658 482.748 56.0985 479.951 56.0985C477.154 56.0985 474.887 58.3658 474.887 61.163C474.887 63.96 477.154 66.2274 479.951 66.2274ZM428.917 61.163C428.917 63.96 426.649 66.2274 423.852 66.2274C421.055 66.2274 418.788 63.96 418.788 61.163C418.788 58.3658 421.055 56.0985 423.852 56.0985C426.649 56.0985 428.917 58.3658 428.917 61.163ZM536.049 10.1289C538.846 10.1289 541.114 7.86145 541.114 5.06445C541.114 2.26746 538.846 0 536.049 0C533.252 0 530.985 2.26746 530.985 5.06445C530.985 7.86145 533.252 10.1289 536.049 10.1289ZM597.212 5.06445C597.212 7.86145 594.945 10.1289 592.148 10.1289C589.351 10.1289 587.083 7.86145 587.083 5.06445C587.083 2.26746 589.351 0 592.148 0C594.945 0 597.212 2.26746 597.212 5.06445ZM592.148 66.2274C594.945 66.2274 597.212 63.96 597.212 61.163C597.212 58.3658 594.945 56.0985 592.148 56.0985C589.351 56.0985 587.083 58.3658 587.083 61.163C587.083 63.96 589.351 66.2274 592.148 66.2274ZM541.114 61.163C541.114 63.96 538.846 66.2274 536.049 66.2274C533.252 66.2274 530.985 63.96 530.985 61.163C530.985 58.3658 533.252 56.0985 536.049 56.0985C538.846 56.0985 541.114 58.3658 541.114 61.163ZM423.852 122.326C426.649 122.326 428.917 120.058 428.917 117.261C428.917 114.464 426.649 112.197 423.852 112.197C421.055 112.197 418.788 114.464 418.788 117.261C418.788 120.058 421.055 122.326 423.852 122.326ZM485.016 117.261C485.016 120.058 482.748 122.326 479.951 122.326C477.154 122.326 474.887 120.058 474.887 117.261C474.887 114.464 477.154 112.197 479.951 112.197C482.748 112.197 485.016 114.464 485.016 117.261ZM479.951 178.424C482.748 178.424 485.016 176.157 485.016 173.36C485.016 170.563 482.748 168.295 479.951 168.295C477.154 168.295 474.887 170.563 474.887 173.36C474.887 176.157 477.154 178.424 479.951 178.424ZM428.917 173.36C428.917 176.157 426.649 178.424 423.852 178.424C421.055 178.424 418.788 176.157 418.788 173.36C418.788 170.563 421.055 168.295 423.852 168.295C426.649 168.295 428.917 170.563 428.917 173.36ZM536.049 122.326C538.846 122.326 541.114 120.058 541.114 117.261C541.114 114.464 538.846 112.197 536.049 112.197C533.252 112.197 530.985 114.464 530.985 117.261C530.985 120.058 533.252 122.326 536.049 122.326ZM597.212 117.261C597.212 120.058 594.945 122.326 592.148 122.326C589.351 122.326 587.083 120.058 587.083 117.261C587.083 114.464 589.351 112.197 592.148 112.197C594.945 112.197 597.212 114.464 597.212 117.261ZM592.148 178.424C594.945 178.424 597.212 176.157 597.212 173.36C597.212 170.563 594.945 168.295 592.148 168.295C589.351 168.295 587.083 170.563 587.083 173.36C587.083 176.157 589.351 178.424 592.148 178.424ZM541.114 173.36C541.114 176.157 538.846 178.424 536.049 178.424C533.252 178.424 530.985 176.157 530.985 173.36C530.985 170.563 533.252 168.295 536.049 168.295C538.846 168.295 541.114 170.563 541.114 173.36ZM648.246 10.1289C651.043 10.1289 653.311 7.86145 653.311 5.06445C653.311 2.26746 651.043 0 648.246 0C645.449 0 643.182 2.26746 643.182 5.06445C643.182 7.86145 645.449 10.1289 648.246 10.1289ZM709.409 5.06445C709.409 7.86145 707.142 10.1289 704.345 10.1289C701.548 10.1289 699.28 7.86145 699.28 5.06445C699.28 2.26746 701.548 0 704.345 0C707.142 0 709.409 2.26746 709.409 5.06445ZM704.345 66.2274C707.142 66.2274 709.409 63.96 709.409 61.163C709.409 58.3658 707.142 56.0985 704.345 56.0985C701.548 56.0985 699.28 58.3658 699.28 61.163C699.28 63.96 701.548 66.2274 704.345 66.2274ZM653.311 61.163C653.311 63.96 651.043 66.2274 648.246 66.2274C645.449 66.2274 643.182 63.96 643.182 61.163C643.182 58.3658 645.449 56.0985 648.246 56.0985C651.043 56.0985 653.311 58.3658 653.311 61.163ZM760.443 10.1289C763.24 10.1289 765.507 7.86145 765.507 5.06445C765.507 2.26746 763.24 0 760.443 0C757.646 0 755.378 2.26746 755.378 5.06445C755.378 7.86145 757.646 10.1289 760.443 10.1289ZM821.606 5.06445C821.606 7.86145 819.339 10.1289 816.542 10.1289C813.745 10.1289 811.478 7.86145 811.478 5.06445C811.478 2.26746 813.745 0 816.542 0C819.339 0 821.606 2.26746 821.606 5.06445ZM816.542 66.2274C819.339 66.2274 821.606 63.96 821.606 61.163C821.606 58.3658 819.339 56.0985 816.542 56.0985C813.745 56.0985 811.478 58.3658 811.478 61.163C811.478 63.96 813.745 66.2274 816.542 66.2274ZM765.507 61.163C765.507 63.96 763.24 66.2274 760.443 66.2274C757.646 66.2274 755.378 63.96 755.378 61.163C755.378 58.3658 757.646 56.0985 760.443 56.0985C763.24 56.0985 765.507 58.3658 765.507 61.163ZM648.246 122.326C651.043 122.326 653.311 120.058 653.311 117.261C653.311 114.464 651.043 112.197 648.246 112.197C645.449 112.197 643.182 114.464 643.182 117.261C643.182 120.058 645.449 122.326 648.246 122.326ZM709.409 117.261C709.409 120.058 707.142 122.326 704.345 122.326C701.548 122.326 699.28 120.058 699.28 117.261C699.28 114.464 701.548 112.197 704.345 112.197C707.142 112.197 709.409 114.464 709.409 117.261ZM704.345 178.424C707.142 178.424 709.409 176.157 709.409 173.36C709.409 170.563 707.142 168.295 704.345 168.295C701.548 168.295 699.28 170.563 699.28 173.36C699.28 176.157 701.548 178.424 704.345 178.424ZM653.311 173.36C653.311 176.157 651.043 178.424 648.246 178.424C645.449 178.424 643.182 176.157 643.182 173.36C643.182 170.563 645.449 168.295 648.246 168.295C651.043 168.295 653.311 170.563 653.311 173.36ZM760.443 122.326C763.24 122.326 765.507 120.058 765.507 117.261C765.507 114.464 763.24 112.197 760.443 112.197C757.646 112.197 755.378 114.464 755.378 117.261C755.378 120.058 757.646 122.326 760.443 122.326ZM821.606 117.261C821.606 120.058 819.339 122.326 816.542 122.326C813.745 122.326 811.478 120.058 811.478 117.261C811.478 114.464 813.745 112.197 816.542 112.197C819.339 112.197 821.606 114.464 821.606 117.261ZM816.542 178.424C819.339 178.424 821.606 176.157 821.606 173.36C821.606 170.563 819.339 168.295 816.542 168.295C813.745 168.295 811.478 170.563 811.478 173.36C811.478 176.157 813.745 178.424 816.542 178.424ZM765.507 173.36C765.507 176.157 763.24 178.424 760.443 178.424C757.646 178.424 755.378 176.157 755.378 173.36C755.378 170.563 757.646 168.295 760.443 168.295C763.24 168.295 765.507 170.563 765.507 173.36ZM928.739 66.2274C931.536 66.2274 933.803 63.96 933.803 61.163C933.803 58.3658 931.536 56.0985 928.739 56.0985C925.942 56.0985 923.674 58.3658 923.674 61.163C923.674 63.96 925.942 66.2274 928.739 66.2274ZM877.705 61.163C877.705 63.96 875.437 66.2274 872.64 66.2274C869.843 66.2274 867.576 63.96 867.576 61.163C867.576 58.3658 869.843 56.0985 872.64 56.0985C875.437 56.0985 877.705 58.3658 877.705 61.163ZM928.739 10.1289C931.536 10.1289 933.803 7.86145 933.803 5.06445C933.803 2.26746 931.536 0 928.739 0C925.942 0 923.674 2.26746 923.674 5.06445C923.674 7.86145 925.942 10.1289 928.739 10.1289ZM877.705 5.06445C877.705 7.86145 875.437 10.1289 872.64 10.1289C869.843 10.1289 867.576 7.86145 867.576 5.06445C867.576 2.26746 869.843 0 872.64 0C875.437 0 877.705 2.26746 877.705 5.06445ZM984.837 10.1289C987.634 10.1289 989.901 7.86145 989.901 5.06445C989.901 2.26746 987.634 0 984.837 0C982.04 0 979.772 2.26746 979.772 5.06445C979.772 7.86145 982.04 10.1289 984.837 10.1289ZM1046 5.06445C1046 7.86145 1043.73 10.1289 1040.94 10.1289C1038.14 10.1289 1035.87 7.86145 1035.87 5.06445C1035.87 2.26746 1038.14 0 1040.94 0C1043.73 0 1046 2.26746 1046 5.06445ZM1040.94 66.2274C1043.73 66.2274 1046 63.96 1046 61.163C1046 58.3658 1043.73 56.0985 1040.94 56.0985C1038.14 56.0985 1035.87 58.3658 1035.87 61.163C1035.87 63.96 1038.14 66.2274 1040.94 66.2274ZM989.901 61.163C989.901 63.96 987.634 66.2274 984.837 66.2274C982.04 66.2274 979.772 63.96 979.772 61.163C979.772 58.3658 982.04 56.0985 984.837 56.0985C987.634 56.0985 989.901 58.3658 989.901 61.163ZM872.64 122.326C875.437 122.326 877.705 120.058 877.705 117.261C877.705 114.464 875.437 112.197 872.64 112.197C869.843 112.197 867.576 114.464 867.576 117.261C867.576 120.058 869.843 122.326 872.64 122.326ZM933.803 117.261C933.803 120.058 931.536 122.326 928.739 122.326C925.942 122.326 923.674 120.058 923.674 117.261C923.674 114.464 925.942 112.197 928.739 112.197C931.536 112.197 933.803 114.464 933.803 117.261ZM928.739 178.424C931.536 178.424 933.803 176.157 933.803 173.36C933.803 170.563 931.536 168.295 928.739 168.295C925.942 168.295 923.674 170.563 923.674 173.36C923.674 176.157 925.942 178.424 928.739 178.424ZM877.705 173.36C877.705 176.157 875.437 178.424 872.64 178.424C869.843 178.424 867.576 176.157 867.576 173.36C867.576 170.563 869.843 168.295 872.64 168.295C875.437 168.295 877.705 170.563 877.705 173.36ZM984.837 122.326C987.634 122.326 989.901 120.058 989.901 117.261C989.901 114.464 987.634 112.197 984.837 112.197C982.04 112.197 979.772 114.464 979.772 117.261C979.772 120.058 982.04 122.326 984.837 122.326ZM1046 117.261C1046 120.058 1043.73 122.326 1040.94 122.326C1038.14 122.326 1035.87 120.058 1035.87 117.261C1035.87 114.464 1038.14 112.197 1040.94 112.197C1043.73 112.197 1046 114.464 1046 117.261ZM1040.94 178.424C1043.73 178.424 1046 176.157 1046 173.36C1046 170.563 1043.73 168.295 1040.94 168.295C1038.14 168.295 1035.87 170.563 1035.87 173.36C1035.87 176.157 1038.14 178.424 1040.94 178.424ZM989.901 173.36C989.901 176.157 987.634 178.424 984.837 178.424C982.04 178.424 979.772 176.157 979.772 173.36C979.772 170.563 982.04 168.295 984.837 168.295C987.634 168.295 989.901 170.563 989.901 173.36ZM1101.13 5.06445C1101.13 7.86145 1098.86 10.1289 1096.06 10.1289C1093.27 10.1289 1091 7.86145 1091 5.06445C1091 2.26746 1093.27 0 1096.06 0C1098.86 0 1101.13 2.26746 1101.13 5.06445ZM1157.23 5.06445C1157.23 7.86145 1154.96 10.1289 1152.16 10.1289C1149.37 10.1289 1147.1 7.86145 1147.1 5.06445C1147.1 2.26746 1149.37 0 1152.16 0C1154.96 0 1157.23 2.26746 1157.23 5.06445ZM1152.16 66.2274C1154.96 66.2274 1157.23 63.96 1157.23 61.163C1157.23 58.3658 1154.96 56.0985 1152.16 56.0985C1149.37 56.0985 1147.1 58.3658 1147.1 61.163C1147.1 63.96 1149.37 66.2274 1152.16 66.2274ZM1101.13 61.163C1101.13 63.96 1098.86 66.2274 1096.06 66.2274C1093.27 66.2274 1091 63.96 1091 61.163C1091 58.3658 1093.27 56.0985 1096.06 56.0985C1098.86 56.0985 1101.13 58.3658 1101.13 61.163ZM1208.26 10.1289C1211.06 10.1289 1213.33 7.86145 1213.33 5.06445C1213.33 2.26746 1211.06 0 1208.26 0C1205.46 0 1203.2 2.26746 1203.2 5.06445C1203.2 7.86145 1205.46 10.1289 1208.26 10.1289ZM1269.42 5.06445C1269.42 7.86145 1267.16 10.1289 1264.36 10.1289C1261.56 10.1289 1259.3 7.86145 1259.3 5.06445C1259.3 2.26746 1261.56 0 1264.36 0C1267.16 0 1269.42 2.26746 1269.42 5.06445ZM1264.36 66.2274C1267.16 66.2274 1269.42 63.96 1269.42 61.163C1269.42 58.3658 1267.16 56.0985 1264.36 56.0985C1261.56 56.0985 1259.3 58.3658 1259.3 61.163C1259.3 63.96 1261.56 66.2274 1264.36 66.2274ZM1213.33 61.163C1213.33 63.96 1211.06 66.2274 1208.26 66.2274C1205.46 66.2274 1203.2 63.96 1203.2 61.163C1203.2 58.3658 1205.46 56.0985 1208.26 56.0985C1211.06 56.0985 1213.33 58.3658 1213.33 61.163ZM1096.06 122.326C1098.86 122.326 1101.13 120.058 1101.13 117.261C1101.13 114.464 1098.86 112.197 1096.06 112.197C1093.27 112.197 1091 114.464 1091 117.261C1091 120.058 1093.27 122.326 1096.06 122.326ZM1157.23 117.261C1157.23 120.058 1154.96 122.326 1152.16 122.326C1149.37 122.326 1147.1 120.058 1147.1 117.261C1147.1 114.464 1149.37 112.197 1152.16 112.197C1154.96 112.197 1157.23 114.464 1157.23 117.261ZM1152.16 178.424C1154.96 178.424 1157.23 176.157 1157.23 173.36C1157.23 170.563 1154.96 168.295 1152.16 168.295C1149.37 168.295 1147.1 170.563 1147.1 173.36C1147.1 176.157 1149.37 178.424 1152.16 178.424ZM1101.13 173.36C1101.13 176.157 1098.86 178.424 1096.06 178.424C1093.27 178.424 1091 176.157 1091 173.36C1091 170.563 1093.27 168.295 1096.06 168.295C1098.86 168.295 1101.13 170.563 1101.13 173.36ZM1208.26 122.326C1211.06 122.326 1213.33 120.058 1213.33 117.261C1213.33 114.464 1211.06 112.197 1208.26 112.197C1205.46 112.197 1203.2 114.464 1203.2 117.261C1203.2 120.058 1205.46 122.326 1208.26 122.326ZM1269.42 117.261C1269.42 120.058 1267.16 122.326 1264.36 122.326C1261.56 122.326 1259.3 120.058 1259.3 117.261C1259.3 114.464 1261.56 112.197 1264.36 112.197C1267.16 112.197 1269.42 114.464 1269.42 117.261ZM1264.36 178.424C1267.16 178.424 1269.42 176.157 1269.42 173.36C1269.42 170.563 1267.16 168.295 1264.36 168.295C1261.56 168.295 1259.3 170.563 1259.3 173.36C1259.3 176.157 1261.56 178.424 1264.36 178.424ZM1213.33 173.36C1213.33 176.157 1211.06 178.424 1208.26 178.424C1205.46 178.424 1203.2 176.157 1203.2 173.36C1203.2 170.563 1205.46 168.295 1208.26 168.295C1211.06 168.295 1213.33 170.563 1213.33 173.36ZM1320.46 10.1289C1323.26 10.1289 1325.52 7.86145 1325.52 5.06445C1325.52 2.26746 1323.26 0 1320.46 0C1317.66 0 1315.39 2.26746 1315.39 5.06445C1315.39 7.86145 1317.66 10.1289 1320.46 10.1289ZM1381.62 5.06445C1381.62 7.86145 1379.35 10.1289 1376.56 10.1289C1373.76 10.1289 1371.49 7.86145 1371.49 5.06445C1371.49 2.26746 1373.76 0 1376.56 0C1379.35 0 1381.62 2.26746 1381.62 5.06445ZM1376.56 66.2274C1379.35 66.2274 1381.62 63.96 1381.62 61.163C1381.62 58.3658 1379.35 56.0985 1376.56 56.0985C1373.76 56.0985 1371.49 58.3658 1371.49 61.163C1371.49 63.96 1373.76 66.2274 1376.56 66.2274ZM1325.52 61.163C1325.52 63.96 1323.26 66.2274 1320.46 66.2274C1317.66 66.2274 1315.39 63.96 1315.39 61.163C1315.39 58.3658 1317.66 56.0985 1320.46 56.0985C1323.26 56.0985 1325.52 58.3658 1325.52 61.163ZM1432.66 10.1289C1435.45 10.1289 1437.72 7.86145 1437.72 5.06445C1437.72 2.26746 1435.45 0 1432.66 0C1429.86 0 1427.59 2.26746 1427.59 5.06445C1427.59 7.86145 1429.86 10.1289 1432.66 10.1289ZM1493.82 5.06445C1493.82 7.86145 1491.55 10.1289 1488.75 10.1289C1485.96 10.1289 1483.69 7.86145 1483.69 5.06445C1483.69 2.26746 1485.96 0 1488.75 0C1491.55 0 1493.82 2.26746 1493.82 5.06445ZM1488.75 66.2274C1491.55 66.2274 1493.82 63.96 1493.82 61.163C1493.82 58.3658 1491.55 56.0985 1488.75 56.0985C1485.96 56.0985 1483.69 58.3658 1483.69 61.163C1483.69 63.96 1485.96 66.2274 1488.75 66.2274ZM1437.72 61.163C1437.72 63.96 1435.45 66.2274 1432.66 66.2274C1429.86 66.2274 1427.59 63.96 1427.59 61.163C1427.59 58.3658 1429.86 56.0985 1432.66 56.0985C1435.45 56.0985 1437.72 58.3658 1437.72 61.163ZM1320.46 122.326C1323.26 122.326 1325.52 120.058 1325.52 117.261C1325.52 114.464 1323.26 112.197 1320.46 112.197C1317.66 112.197 1315.39 114.464 1315.39 117.261C1315.39 120.058 1317.66 122.326 1320.46 122.326ZM1381.62 117.261C1381.62 120.058 1379.35 122.326 1376.56 122.326C1373.76 122.326 1371.49 120.058 1371.49 117.261C1371.49 114.464 1373.76 112.197 1376.56 112.197C1379.35 112.197 1381.62 114.464 1381.62 117.261ZM1376.56 178.424C1379.35 178.424 1381.62 176.157 1381.62 173.36C1381.62 170.563 1379.35 168.295 1376.56 168.295C1373.76 168.295 1371.49 170.563 1371.49 173.36C1371.49 176.157 1373.76 178.424 1376.56 178.424ZM1325.52 173.36C1325.52 176.157 1323.26 178.424 1320.46 178.424C1317.66 178.424 1315.39 176.157 1315.39 173.36C1315.39 170.563 1317.66 168.295 1320.46 168.295C1323.26 168.295 1325.52 170.563 1325.52 173.36ZM1432.66 122.326C1435.45 122.326 1437.72 120.058 1437.72 117.261C1437.72 114.464 1435.45 112.197 1432.66 112.197C1429.86 112.197 1427.59 114.464 1427.59 117.261C1427.59 120.058 1429.86 122.326 1432.66 122.326ZM1493.82 117.261C1493.82 120.058 1491.55 122.326 1488.75 122.326C1485.96 122.326 1483.69 120.058 1483.69 117.261C1483.69 114.464 1485.96 112.197 1488.75 112.197C1491.55 112.197 1493.82 114.464 1493.82 117.261ZM1488.75 178.424C1491.55 178.424 1493.82 176.157 1493.82 173.36C1493.82 170.563 1491.55 168.295 1488.75 168.295C1485.96 168.295 1483.69 170.563 1483.69 173.36C1483.69 176.157 1485.96 178.424 1488.75 178.424ZM1437.72 173.36C1437.72 176.157 1435.45 178.424 1432.66 178.424C1429.86 178.424 1427.59 176.157 1427.59 173.36C1427.59 170.563 1429.86 168.295 1432.66 168.295C1435.45 168.295 1437.72 170.563 1437.72 173.36ZM1096.06 234.523C1098.86 234.523 1101.13 232.255 1101.13 229.458C1101.13 226.661 1098.86 224.394 1096.06 224.394C1093.27 224.394 1091 226.661 1091 229.458C1091 232.255 1093.27 234.523 1096.06 234.523ZM1157.23 229.458C1157.23 232.255 1154.96 234.523 1152.16 234.523C1149.37 234.523 1147.1 232.255 1147.1 229.458C1147.1 226.661 1149.37 224.394 1152.16 224.394C1154.96 224.394 1157.23 226.661 1157.23 229.458ZM1152.16 290.621C1154.96 290.621 1157.23 288.354 1157.23 285.557C1157.23 282.76 1154.96 280.492 1152.16 280.492C1149.37 280.492 1147.1 282.76 1147.1 285.557C1147.1 288.354 1149.37 290.621 1152.16 290.621ZM1101.13 285.557C1101.13 288.354 1098.86 290.621 1096.06 290.621C1093.27 290.621 1091 288.354 1091 285.557C1091 282.76 1093.27 280.492 1096.06 280.492C1098.86 280.492 1101.13 282.76 1101.13 285.557ZM1208.26 234.523C1211.06 234.523 1213.33 232.255 1213.33 229.458C1213.33 226.661 1211.06 224.394 1208.26 224.394C1205.46 224.394 1203.2 226.661 1203.2 229.458C1203.2 232.255 1205.46 234.523 1208.26 234.523ZM1269.42 229.458C1269.42 232.255 1267.16 234.523 1264.36 234.523C1261.56 234.523 1259.3 232.255 1259.3 229.458C1259.3 226.661 1261.56 224.394 1264.36 224.394C1267.16 224.394 1269.42 226.661 1269.42 229.458ZM1264.36 290.621C1267.16 290.621 1269.42 288.354 1269.42 285.557C1269.42 282.76 1267.16 280.492 1264.36 280.492C1261.56 280.492 1259.3 282.76 1259.3 285.557C1259.3 288.354 1261.56 290.621 1264.36 290.621ZM1213.33 285.557C1213.33 288.354 1211.06 290.621 1208.26 290.621C1205.46 290.621 1203.2 288.354 1203.2 285.557C1203.2 282.76 1205.46 280.492 1208.26 280.492C1211.06 280.492 1213.33 282.76 1213.33 285.557ZM1320.46 234.523C1323.26 234.523 1325.52 232.255 1325.52 229.458C1325.52 226.661 1323.26 224.394 1320.46 224.394C1317.66 224.394 1315.39 226.661 1315.39 229.458C1315.39 232.255 1317.66 234.523 1320.46 234.523ZM1381.62 229.458C1381.62 232.255 1379.35 234.523 1376.56 234.523C1373.76 234.523 1371.49 232.255 1371.49 229.458C1371.49 226.661 1373.76 224.394 1376.56 224.394C1379.35 224.394 1381.62 226.661 1381.62 229.458ZM1376.56 290.621C1379.35 290.621 1381.62 288.354 1381.62 285.557C1381.62 282.76 1379.35 280.492 1376.56 280.492C1373.76 280.492 1371.49 282.76 1371.49 285.557C1371.49 288.354 1373.76 290.621 1376.56 290.621ZM1325.52 285.557C1325.52 288.354 1323.26 290.621 1320.46 290.621C1317.66 290.621 1315.39 288.354 1315.39 285.557C1315.39 282.76 1317.66 280.492 1320.46 280.492C1323.26 280.492 1325.52 282.76 1325.52 285.557ZM1432.66 234.523C1435.45 234.523 1437.72 232.255 1437.72 229.458C1437.72 226.661 1435.45 224.394 1432.66 224.394C1429.86 224.394 1427.59 226.661 1427.59 229.458C1427.59 232.255 1429.86 234.523 1432.66 234.523ZM1493.82 229.458C1493.82 232.255 1491.55 234.523 1488.75 234.523C1485.96 234.523 1483.69 232.255 1483.69 229.458C1483.69 226.661 1485.96 224.394 1488.75 224.394C1491.55 224.394 1493.82 226.661 1493.82 229.458ZM1488.75 290.621C1491.55 290.621 1493.82 288.354 1493.82 285.557C1493.82 282.76 1491.55 280.492 1488.75 280.492C1485.96 280.492 1483.69 282.76 1483.69 285.557C1483.69 288.354 1485.96 290.621 1488.75 290.621ZM1437.72 285.557C1437.72 288.354 1435.45 290.621 1432.66 290.621C1429.86 290.621 1427.59 288.354 1427.59 285.557C1427.59 282.76 1429.86 280.492 1432.66 280.492C1435.45 280.492 1437.72 282.76 1437.72 285.557ZM1544.85 234.523C1547.65 234.523 1549.92 232.255 1549.92 229.458C1549.92 226.661 1547.65 224.394 1544.85 224.394C1542.06 224.394 1539.79 226.661 1539.79 229.458C1539.79 232.255 1542.06 234.523 1544.85 234.523ZM1606.02 229.458C1606.02 232.255 1603.75 234.523 1600.95 234.523C1598.15 234.523 1595.89 232.255 1595.89 229.458C1595.89 226.661 1598.15 224.394 1600.95 224.394C1603.75 224.394 1606.02 226.661 1606.02 229.458ZM1600.95 290.621C1603.75 290.621 1606.02 288.354 1606.02 285.557C1606.02 282.76 1603.75 280.492 1600.95 280.492C1598.15 280.492 1595.89 282.76 1595.89 285.557C1595.89 288.354 1598.15 290.621 1600.95 290.621ZM1549.92 285.557C1549.92 288.354 1547.65 290.621 1544.85 290.621C1542.06 290.621 1539.79 288.354 1539.79 285.557C1539.79 282.76 1542.06 280.492 1544.85 280.492C1547.65 280.492 1549.92 282.76 1549.92 285.557ZM1657.05 234.523C1659.85 234.523 1662.11 232.255 1662.11 229.458C1662.11 226.661 1659.85 224.394 1657.05 224.394C1654.25 224.394 1651.98 226.661 1651.98 229.458C1651.98 232.255 1654.25 234.523 1657.05 234.523ZM1718.21 229.458C1718.21 232.255 1715.94 234.523 1713.15 234.523C1710.35 234.523 1708.08 232.255 1708.08 229.458C1708.08 226.661 1710.35 224.394 1713.15 224.394C1715.94 224.394 1718.21 226.661 1718.21 229.458ZM1713.15 290.621C1715.94 290.621 1718.21 288.354 1718.21 285.557C1718.21 282.76 1715.94 280.492 1713.15 280.492C1710.35 280.492 1708.08 282.76 1708.08 285.557C1708.08 288.354 1710.35 290.621 1713.15 290.621ZM1662.11 285.557C1662.11 288.354 1659.85 290.621 1657.05 290.621C1654.25 290.621 1651.98 288.354 1651.98 285.557C1651.98 282.76 1654.25 280.492 1657.05 280.492C1659.85 280.492 1662.11 282.76 1662.11 285.557ZM1769.25 234.523C1772.04 234.523 1774.31 232.255 1774.31 229.458C1774.31 226.661 1772.04 224.394 1769.25 224.394C1766.45 224.394 1764.18 226.661 1764.18 229.458C1764.18 232.255 1766.45 234.523 1769.25 234.523ZM1830.41 229.458C1830.41 232.255 1828.14 234.523 1825.34 234.523C1822.55 234.523 1820.28 232.255 1820.28 229.458C1820.28 226.661 1822.55 224.394 1825.34 224.394C1828.14 224.394 1830.41 226.661 1830.41 229.458ZM1825.34 290.621C1828.14 290.621 1830.41 288.354 1830.41 285.557C1830.41 282.76 1828.14 280.492 1825.34 280.492C1822.55 280.492 1820.28 282.76 1820.28 285.557C1820.28 288.354 1822.55 290.621 1825.34 290.621ZM1774.31 285.557C1774.31 288.354 1772.04 290.621 1769.25 290.621C1766.45 290.621 1764.18 288.354 1764.18 285.557C1764.18 282.76 1766.45 280.492 1769.25 280.492C1772.04 280.492 1774.31 282.76 1774.31 285.557ZM1881.44 234.523C1884.24 234.523 1886.51 232.255 1886.51 229.458C1886.51 226.661 1884.24 224.394 1881.44 224.394C1878.65 224.394 1876.38 226.661 1876.38 229.458C1876.38 232.255 1878.65 234.523 1881.44 234.523ZM1942.61 229.458C1942.61 232.255 1940.34 234.523 1937.54 234.523C1934.74 234.523 1932.48 232.255 1932.48 229.458C1932.48 226.661 1934.74 224.394 1937.54 224.394C1940.34 224.394 1942.61 226.661 1942.61 229.458ZM1937.54 290.621C1940.34 290.621 1942.61 288.354 1942.61 285.557C1942.61 282.76 1940.34 280.492 1937.54 280.492C1934.74 280.492 1932.48 282.76 1932.48 285.557C1932.48 288.354 1934.74 290.621 1937.54 290.621ZM1886.51 285.557C1886.51 288.354 1884.24 290.621 1881.44 290.621C1878.65 290.621 1876.38 288.354 1876.38 285.557C1876.38 282.76 1878.65 280.492 1881.44 280.492C1884.24 280.492 1886.51 282.76 1886.51 285.557ZM1993.64 234.523C1996.44 234.523 1998.7 232.255 1998.7 229.458C1998.7 226.661 1996.44 224.394 1993.64 224.394C1990.84 224.394 1988.58 226.661 1988.58 229.458C1988.58 232.255 1990.84 234.523 1993.64 234.523ZM2054.8 229.458C2054.8 232.255 2052.54 234.523 2049.74 234.523C2046.94 234.523 2044.67 232.255 2044.67 229.458C2044.67 226.661 2046.94 224.394 2049.74 224.394C2052.54 224.394 2054.8 226.661 2054.8 229.458ZM2049.74 290.621C2052.54 290.621 2054.8 288.354 2054.8 285.557C2054.8 282.76 2052.54 280.492 2049.74 280.492C2046.94 280.492 2044.67 282.76 2044.67 285.557C2044.67 288.354 2046.94 290.621 2049.74 290.621ZM1998.7 285.557C1998.7 288.354 1996.44 290.621 1993.64 290.621C1990.84 290.621 1988.58 288.354 1988.58 285.557C1988.58 282.76 1990.84 280.492 1993.64 280.492C1996.44 280.492 1998.7 282.76 1998.7 285.557ZM2105.84 234.523C2108.63 234.523 2110.9 232.255 2110.9 229.458C2110.9 226.661 2108.63 224.394 2105.84 224.394C2103.04 224.394 2100.77 226.661 2100.77 229.458C2100.77 232.255 2103.04 234.523 2105.84 234.523ZM2167 229.458C2167 232.255 2164.73 234.523 2161.94 234.523C2159.14 234.523 2156.87 232.255 2156.87 229.458C2156.87 226.661 2159.14 224.394 2161.94 224.394C2164.73 224.394 2167 226.661 2167 229.458ZM2161.94 290.621C2164.73 290.621 2167 288.354 2167 285.557C2167 282.76 2164.73 280.492 2161.94 280.492C2159.14 280.492 2156.87 282.76 2156.87 285.557C2156.87 288.354 2159.14 290.621 2161.94 290.621ZM2110.9 285.557C2110.9 288.354 2108.63 290.621 2105.84 290.621C2103.04 290.621 2100.77 288.354 2100.77 285.557C2100.77 282.76 2103.04 280.492 2105.84 280.492C2108.63 280.492 2110.9 282.76 2110.9 285.557ZM1544.85 10.1289C1547.65 10.1289 1549.92 7.86145 1549.92 5.06445C1549.92 2.26746 1547.65 0 1544.85 0C1542.06 0 1539.79 2.26746 1539.79 5.06445C1539.79 7.86145 1542.06 10.1289 1544.85 10.1289ZM1606.02 5.06445C1606.02 7.86145 1603.75 10.1289 1600.95 10.1289C1598.15 10.1289 1595.89 7.86145 1595.89 5.06445C1595.89 2.26746 1598.15 0 1600.95 0C1603.75 0 1606.02 2.26746 1606.02 5.06445ZM1600.95 66.2274C1603.75 66.2274 1606.02 63.96 1606.02 61.163C1606.02 58.3658 1603.75 56.0985 1600.95 56.0985C1598.15 56.0985 1595.89 58.3658 1595.89 61.163C1595.89 63.96 1598.15 66.2274 1600.95 66.2274ZM1549.92 61.163C1549.92 63.96 1547.65 66.2274 1544.85 66.2274C1542.06 66.2274 1539.79 63.96 1539.79 61.163C1539.79 58.3658 1542.06 56.0985 1544.85 56.0985C1547.65 56.0985 1549.92 58.3658 1549.92 61.163ZM1657.05 10.1289C1659.85 10.1289 1662.11 7.86145 1662.11 5.06445C1662.11 2.26746 1659.85 0 1657.05 0C1654.25 0 1651.98 2.26746 1651.98 5.06445C1651.98 7.86145 1654.25 10.1289 1657.05 10.1289ZM1718.21 5.06445C1718.21 7.86145 1715.94 10.1289 1713.15 10.1289C1710.35 10.1289 1708.08 7.86145 1708.08 5.06445C1708.08 2.26746 1710.35 0 1713.15 0C1715.94 0 1718.21 2.26746 1718.21 5.06445ZM1713.15 66.2274C1715.94 66.2274 1718.21 63.96 1718.21 61.163C1718.21 58.3658 1715.94 56.0985 1713.15 56.0985C1710.35 56.0985 1708.08 58.3658 1708.08 61.163C1708.08 63.96 1710.35 66.2274 1713.15 66.2274ZM1662.11 61.163C1662.11 63.96 1659.85 66.2274 1657.05 66.2274C1654.25 66.2274 1651.98 63.96 1651.98 61.163C1651.98 58.3658 1654.25 56.0985 1657.05 56.0985C1659.85 56.0985 1662.11 58.3658 1662.11 61.163ZM1544.85 122.326C1547.65 122.326 1549.92 120.058 1549.92 117.261C1549.92 114.464 1547.65 112.197 1544.85 112.197C1542.06 112.197 1539.79 114.464 1539.79 117.261C1539.79 120.058 1542.06 122.326 1544.85 122.326ZM1606.02 117.261C1606.02 120.058 1603.75 122.326 1600.95 122.326C1598.15 122.326 1595.89 120.058 1595.89 117.261C1595.89 114.464 1598.15 112.197 1600.95 112.197C1603.75 112.197 1606.02 114.464 1606.02 117.261ZM1600.95 178.424C1603.75 178.424 1606.02 176.157 1606.02 173.36C1606.02 170.563 1603.75 168.295 1600.95 168.295C1598.15 168.295 1595.89 170.563 1595.89 173.36C1595.89 176.157 1598.15 178.424 1600.95 178.424ZM1549.92 173.36C1549.92 176.157 1547.65 178.424 1544.85 178.424C1542.06 178.424 1539.79 176.157 1539.79 173.36C1539.79 170.563 1542.06 168.295 1544.85 168.295C1547.65 168.295 1549.92 170.563 1549.92 173.36ZM1657.05 122.326C1659.85 122.326 1662.11 120.058 1662.11 117.261C1662.11 114.464 1659.85 112.197 1657.05 112.197C1654.25 112.197 1651.98 114.464 1651.98 117.261C1651.98 120.058 1654.25 122.326 1657.05 122.326ZM1718.21 117.261C1718.21 120.058 1715.94 122.326 1713.15 122.326C1710.35 122.326 1708.08 120.058 1708.08 117.261C1708.08 114.464 1710.35 112.197 1713.15 112.197C1715.94 112.197 1718.21 114.464 1718.21 117.261ZM1713.15 178.424C1715.94 178.424 1718.21 176.157 1718.21 173.36C1718.21 170.563 1715.94 168.295 1713.15 168.295C1710.35 168.295 1708.08 170.563 1708.08 173.36C1708.08 176.157 1710.35 178.424 1713.15 178.424ZM1662.11 173.36C1662.11 176.157 1659.85 178.424 1657.05 178.424C1654.25 178.424 1651.98 176.157 1651.98 173.36C1651.98 170.563 1654.25 168.295 1657.05 168.295C1659.85 168.295 1662.11 170.563 1662.11 173.36ZM1769.25 10.1289C1772.04 10.1289 1774.31 7.86145 1774.31 5.06445C1774.31 2.26746 1772.04 0 1769.25 0C1766.45 0 1764.18 2.26746 1764.18 5.06445C1764.18 7.86145 1766.45 10.1289 1769.25 10.1289ZM1830.41 5.06445C1830.41 7.86145 1828.14 10.1289 1825.34 10.1289C1822.55 10.1289 1820.28 7.86145 1820.28 5.06445C1820.28 2.26746 1822.55 0 1825.34 0C1828.14 0 1830.41 2.26746 1830.41 5.06445ZM1825.34 66.2274C1828.14 66.2274 1830.41 63.96 1830.41 61.163C1830.41 58.3658 1828.14 56.0985 1825.34 56.0985C1822.55 56.0985 1820.28 58.3658 1820.28 61.163C1820.28 63.96 1822.55 66.2274 1825.34 66.2274ZM1774.31 61.163C1774.31 63.96 1772.04 66.2274 1769.25 66.2274C1766.45 66.2274 1764.18 63.96 1764.18 61.163C1764.18 58.3658 1766.45 56.0985 1769.25 56.0985C1772.04 56.0985 1774.31 58.3658 1774.31 61.163ZM1881.44 10.1289C1884.24 10.1289 1886.51 7.86145 1886.51 5.06445C1886.51 2.26746 1884.24 0 1881.44 0C1878.65 0 1876.38 2.26746 1876.38 5.06445C1876.38 7.86145 1878.65 10.1289 1881.44 10.1289ZM1942.61 5.06445C1942.61 7.86145 1940.34 10.1289 1937.54 10.1289C1934.74 10.1289 1932.48 7.86145 1932.48 5.06445C1932.48 2.26746 1934.74 0 1937.54 0C1940.34 0 1942.61 2.26746 1942.61 5.06445ZM1937.54 66.2274C1940.34 66.2274 1942.61 63.96 1942.61 61.163C1942.61 58.3658 1940.34 56.0985 1937.54 56.0985C1934.74 56.0985 1932.48 58.3658 1932.48 61.163C1932.48 63.96 1934.74 66.2274 1937.54 66.2274ZM1886.51 61.163C1886.51 63.96 1884.24 66.2274 1881.44 66.2274C1878.65 66.2274 1876.38 63.96 1876.38 61.163C1876.38 58.3658 1878.65 56.0985 1881.44 56.0985C1884.24 56.0985 1886.51 58.3658 1886.51 61.163ZM1769.25 122.326C1772.04 122.326 1774.31 120.058 1774.31 117.261C1774.31 114.464 1772.04 112.197 1769.25 112.197C1766.45 112.197 1764.18 114.464 1764.18 117.261C1764.18 120.058 1766.45 122.326 1769.25 122.326ZM1830.41 117.261C1830.41 120.058 1828.14 122.326 1825.34 122.326C1822.55 122.326 1820.28 120.058 1820.28 117.261C1820.28 114.464 1822.55 112.197 1825.34 112.197C1828.14 112.197 1830.41 114.464 1830.41 117.261ZM1825.34 178.424C1828.14 178.424 1830.41 176.157 1830.41 173.36C1830.41 170.563 1828.14 168.295 1825.34 168.295C1822.55 168.295 1820.28 170.563 1820.28 173.36C1820.28 176.157 1822.55 178.424 1825.34 178.424ZM1774.31 173.36C1774.31 176.157 1772.04 178.424 1769.25 178.424C1766.45 178.424 1764.18 176.157 1764.18 173.36C1764.18 170.563 1766.45 168.295 1769.25 168.295C1772.04 168.295 1774.31 170.563 1774.31 173.36ZM1881.44 122.326C1884.24 122.326 1886.51 120.058 1886.51 117.261C1886.51 114.464 1884.24 112.197 1881.44 112.197C1878.65 112.197 1876.38 114.464 1876.38 117.261C1876.38 120.058 1878.65 122.326 1881.44 122.326ZM1942.61 117.261C1942.61 120.058 1940.34 122.326 1937.54 122.326C1934.74 122.326 1932.48 120.058 1932.48 117.261C1932.48 114.464 1934.74 112.197 1937.54 112.197C1940.34 112.197 1942.61 114.464 1942.61 117.261ZM1937.54 178.424C1940.34 178.424 1942.61 176.157 1942.61 173.36C1942.61 170.563 1940.34 168.295 1937.54 168.295C1934.74 168.295 1932.48 170.563 1932.48 173.36C1932.48 176.157 1934.74 178.424 1937.54 178.424ZM1886.51 173.36C1886.51 176.157 1884.24 178.424 1881.44 178.424C1878.65 178.424 1876.38 176.157 1876.38 173.36C1876.38 170.563 1878.65 168.295 1881.44 168.295C1884.24 168.295 1886.51 170.563 1886.51 173.36ZM2049.74 66.2274C2052.54 66.2274 2054.8 63.96 2054.8 61.163C2054.8 58.3658 2052.54 56.0985 2049.74 56.0985C2046.94 56.0985 2044.67 58.3658 2044.67 61.163C2044.67 63.96 2046.94 66.2274 2049.74 66.2274ZM1998.7 61.163C1998.7 63.96 1996.44 66.2274 1993.64 66.2274C1990.84 66.2274 1988.58 63.96 1988.58 61.163C1988.58 58.3658 1990.84 56.0985 1993.64 56.0985C1996.44 56.0985 1998.7 58.3658 1998.7 61.163ZM2049.74 10.1289C2052.54 10.1289 2054.8 7.86145 2054.8 5.06445C2054.8 2.26746 2052.54 0 2049.74 0C2046.94 0 2044.67 2.26746 2044.67 5.06445C2044.67 7.86145 2046.94 10.1289 2049.74 10.1289ZM1998.7 5.06445C1998.7 7.86145 1996.44 10.1289 1993.64 10.1289C1990.84 10.1289 1988.58 7.86145 1988.58 5.06445C1988.58 2.26746 1990.84 0 1993.64 0C1996.44 0 1998.7 2.26746 1998.7 5.06445ZM2105.84 10.1289C2108.63 10.1289 2110.9 7.86145 2110.9 5.06445C2110.9 2.26746 2108.63 0 2105.84 0C2103.04 0 2100.77 2.26746 2100.77 5.06445C2100.77 7.86145 2103.04 10.1289 2105.84 10.1289ZM2167 5.06445C2167 7.86145 2164.73 10.1289 2161.94 10.1289C2159.14 10.1289 2156.87 7.86145 2156.87 5.06445C2156.87 2.26746 2159.14 0 2161.94 0C2164.73 0 2167 2.26746 2167 5.06445ZM2161.94 66.2274C2164.73 66.2274 2167 63.96 2167 61.163C2167 58.3658 2164.73 56.0985 2161.94 56.0985C2159.14 56.0985 2156.87 58.3658 2156.87 61.163C2156.87 63.96 2159.14 66.2274 2161.94 66.2274ZM2110.9 61.163C2110.9 63.96 2108.63 66.2274 2105.84 66.2274C2103.04 66.2274 2100.77 63.96 2100.77 61.163C2100.77 58.3658 2103.04 56.0985 2105.84 56.0985C2108.63 56.0985 2110.9 58.3658 2110.9 61.163ZM1993.64 122.326C1996.44 122.326 1998.7 120.058 1998.7 117.261C1998.7 114.464 1996.44 112.197 1993.64 112.197C1990.84 112.197 1988.58 114.464 1988.58 117.261C1988.58 120.058 1990.84 122.326 1993.64 122.326ZM2054.8 117.261C2054.8 120.058 2052.54 122.326 2049.74 122.326C2046.94 122.326 2044.67 120.058 2044.67 117.261C2044.67 114.464 2046.94 112.197 2049.74 112.197C2052.54 112.197 2054.8 114.464 2054.8 117.261ZM2049.74 178.424C2052.54 178.424 2054.8 176.157 2054.8 173.36C2054.8 170.563 2052.54 168.295 2049.74 168.295C2046.94 168.295 2044.67 170.563 2044.67 173.36C2044.67 176.157 2046.94 178.424 2049.74 178.424ZM1998.7 173.36C1998.7 176.157 1996.44 178.424 1993.64 178.424C1990.84 178.424 1988.58 176.157 1988.58 173.36C1988.58 170.563 1990.84 168.295 1993.64 168.295C1996.44 168.295 1998.7 170.563 1998.7 173.36ZM2105.84 122.326C2108.63 122.326 2110.9 120.058 2110.9 117.261C2110.9 114.464 2108.63 112.197 2105.84 112.197C2103.04 112.197 2100.77 114.464 2100.77 117.261C2100.77 120.058 2103.04 122.326 2105.84 122.326ZM2167 117.261C2167 120.058 2164.73 122.326 2161.94 122.326C2159.14 122.326 2156.87 120.058 2156.87 117.261C2156.87 114.464 2159.14 112.197 2161.94 112.197C2164.73 112.197 2167 114.464 2167 117.261ZM2161.94 178.424C2164.73 178.424 2167 176.157 2167 173.36C2167 170.563 2164.73 168.295 2161.94 168.295C2159.14 168.295 2156.87 170.563 2156.87 173.36C2156.87 176.157 2159.14 178.424 2161.94 178.424ZM2110.9 173.36C2110.9 176.157 2108.63 178.424 2105.84 178.424C2103.04 178.424 2100.77 176.157 2100.77 173.36C2100.77 170.563 2103.04 168.295 2105.84 168.295C2108.63 168.295 2110.9 170.563 2110.9 173.36Z" fill="#0352A8" fill-opacity="0.45"/>
</svg>
